<mxfile host="app.diagrams.net" modified="2024-05-07T08:57:08.501Z" agent="Mozilla/5.0 (Windows NT 10.0; Win64; x64) AppleWebKit/537.36 (KHTML, like Gecko) Chrome/124.0.0.0 Safari/537.36" etag="tTyCRgdJZFI2kdLhBmoF" version="24.3.1" type="device">
  <diagram name="Page-1" id="jEW9U_bXJYBnuXSac5j7">
    <mxGraphModel dx="2074" dy="1098" grid="1" gridSize="10" guides="1" tooltips="1" connect="1" arrows="1" fold="1" page="1" pageScale="1" pageWidth="1169" pageHeight="827" math="0" shadow="0">
      <root>
        <mxCell id="0" />
        <mxCell id="1" parent="0" />
        <mxCell id="Z6GeiyVnoEUKx5BJEDNn-1" value="&lt;font style=&quot;font-size: 11px;&quot;&gt;Identify a relevant problem&lt;/font&gt;" style="whiteSpace=wrap;html=1;aspect=fixed;" vertex="1" parent="1">
          <mxGeometry x="130" y="100" width="80" height="80" as="geometry" />
        </mxCell>
        <mxCell id="Z6GeiyVnoEUKx5BJEDNn-2" value="&lt;font style=&quot;font-size: 11px;&quot;&gt;Define a solution or improvement&lt;/font&gt;" style="whiteSpace=wrap;html=1;aspect=fixed;" vertex="1" parent="1">
          <mxGeometry x="240" y="100" width="80" height="80" as="geometry" />
        </mxCell>
        <mxCell id="Z6GeiyVnoEUKx5BJEDNn-4" value="&lt;font style=&quot;font-size: 11px;&quot;&gt;Design &amp;amp; Development&lt;/font&gt;" style="whiteSpace=wrap;html=1;aspect=fixed;" vertex="1" parent="1">
          <mxGeometry x="350" y="100" width="80" height="80" as="geometry" />
        </mxCell>
        <mxCell id="Z6GeiyVnoEUKx5BJEDNn-5" value="&lt;font style=&quot;font-size: 11px;&quot;&gt;Demonstration&lt;/font&gt;" style="whiteSpace=wrap;html=1;aspect=fixed;" vertex="1" parent="1">
          <mxGeometry x="460" y="100" width="80" height="80" as="geometry" />
        </mxCell>
        <mxCell id="Z6GeiyVnoEUKx5BJEDNn-6" value="&lt;font style=&quot;font-size: 11px;&quot;&gt;Evaluation&lt;/font&gt;" style="whiteSpace=wrap;html=1;aspect=fixed;" vertex="1" parent="1">
          <mxGeometry x="570" y="100" width="80" height="80" as="geometry" />
        </mxCell>
        <mxCell id="Z6GeiyVnoEUKx5BJEDNn-7" value="&lt;font style=&quot;font-size: 11px;&quot;&gt;Communication&lt;/font&gt;" style="whiteSpace=wrap;html=1;aspect=fixed;" vertex="1" parent="1">
          <mxGeometry x="680" y="100" width="80" height="80" as="geometry" />
        </mxCell>
        <mxCell id="Z6GeiyVnoEUKx5BJEDNn-9" value="" style="endArrow=classic;html=1;rounded=0;" edge="1" parent="1">
          <mxGeometry width="50" height="50" relative="1" as="geometry">
            <mxPoint x="210" y="110" as="sourcePoint" />
            <mxPoint x="240" y="110" as="targetPoint" />
          </mxGeometry>
        </mxCell>
        <mxCell id="Z6GeiyVnoEUKx5BJEDNn-10" value="" style="endArrow=classic;html=1;rounded=0;" edge="1" parent="1">
          <mxGeometry width="50" height="50" relative="1" as="geometry">
            <mxPoint x="320" y="110" as="sourcePoint" />
            <mxPoint x="350" y="110" as="targetPoint" />
          </mxGeometry>
        </mxCell>
        <mxCell id="Z6GeiyVnoEUKx5BJEDNn-11" value="" style="endArrow=classic;html=1;rounded=0;" edge="1" parent="1">
          <mxGeometry width="50" height="50" relative="1" as="geometry">
            <mxPoint x="430" y="110" as="sourcePoint" />
            <mxPoint x="460" y="110" as="targetPoint" />
          </mxGeometry>
        </mxCell>
        <mxCell id="Z6GeiyVnoEUKx5BJEDNn-12" value="" style="endArrow=classic;html=1;rounded=0;" edge="1" parent="1">
          <mxGeometry width="50" height="50" relative="1" as="geometry">
            <mxPoint x="540" y="110" as="sourcePoint" />
            <mxPoint x="570" y="110" as="targetPoint" />
          </mxGeometry>
        </mxCell>
        <mxCell id="Z6GeiyVnoEUKx5BJEDNn-14" value="" style="endArrow=classic;html=1;rounded=0;" edge="1" parent="1">
          <mxGeometry width="50" height="50" relative="1" as="geometry">
            <mxPoint x="650" y="110" as="sourcePoint" />
            <mxPoint x="680" y="110" as="targetPoint" />
          </mxGeometry>
        </mxCell>
        <mxCell id="Z6GeiyVnoEUKx5BJEDNn-17" value="" style="endArrow=none;html=1;rounded=0;" edge="1" parent="1">
          <mxGeometry width="50" height="50" relative="1" as="geometry">
            <mxPoint x="609.5" y="100" as="sourcePoint" />
            <mxPoint x="610" y="80" as="targetPoint" />
          </mxGeometry>
        </mxCell>
        <mxCell id="Z6GeiyVnoEUKx5BJEDNn-18" value="" style="endArrow=none;html=1;rounded=0;" edge="1" parent="1">
          <mxGeometry width="50" height="50" relative="1" as="geometry">
            <mxPoint x="390" y="80" as="sourcePoint" />
            <mxPoint x="610" y="80" as="targetPoint" />
          </mxGeometry>
        </mxCell>
        <mxCell id="Z6GeiyVnoEUKx5BJEDNn-19" value="" style="endArrow=classic;html=1;rounded=0;" edge="1" parent="1">
          <mxGeometry width="50" height="50" relative="1" as="geometry">
            <mxPoint x="389.5" y="80" as="sourcePoint" />
            <mxPoint x="390" y="100" as="targetPoint" />
          </mxGeometry>
        </mxCell>
        <mxCell id="Z6GeiyVnoEUKx5BJEDNn-20" value="Process Iteration" style="text;html=1;align=center;verticalAlign=middle;whiteSpace=wrap;rounded=0;" vertex="1" parent="1">
          <mxGeometry x="440" y="60" width="120" height="30" as="geometry" />
        </mxCell>
        <mxCell id="Z6GeiyVnoEUKx5BJEDNn-21" value="Problem-Centered Initiation" style="ellipse;whiteSpace=wrap;html=1;" vertex="1" parent="1">
          <mxGeometry x="130" y="210" width="80" height="60" as="geometry" />
        </mxCell>
        <mxCell id="Z6GeiyVnoEUKx5BJEDNn-22" value="" style="endArrow=classic;html=1;rounded=0;" edge="1" parent="1">
          <mxGeometry width="50" height="50" relative="1" as="geometry">
            <mxPoint x="169.5" y="180" as="sourcePoint" />
            <mxPoint x="170" y="210" as="targetPoint" />
          </mxGeometry>
        </mxCell>
        <mxCell id="Z6GeiyVnoEUKx5BJEDNn-23" value="" style="ellipse;whiteSpace=wrap;html=1;" vertex="1" parent="1">
          <mxGeometry x="240" y="210" width="80" height="60" as="geometry" />
        </mxCell>
        <mxCell id="Z6GeiyVnoEUKx5BJEDNn-24" value="" style="ellipse;whiteSpace=wrap;html=1;" vertex="1" parent="1">
          <mxGeometry x="350" y="210" width="80" height="60" as="geometry" />
        </mxCell>
        <mxCell id="Z6GeiyVnoEUKx5BJEDNn-25" value="" style="ellipse;whiteSpace=wrap;html=1;" vertex="1" parent="1">
          <mxGeometry x="460" y="210" width="80" height="60" as="geometry" />
        </mxCell>
        <mxCell id="Z6GeiyVnoEUKx5BJEDNn-26" value="" style="endArrow=classic;html=1;rounded=0;" edge="1" parent="1">
          <mxGeometry width="50" height="50" relative="1" as="geometry">
            <mxPoint x="279.5" y="180" as="sourcePoint" />
            <mxPoint x="280" y="210" as="targetPoint" />
          </mxGeometry>
        </mxCell>
        <mxCell id="Z6GeiyVnoEUKx5BJEDNn-27" value="" style="endArrow=classic;html=1;rounded=0;" edge="1" parent="1">
          <mxGeometry width="50" height="50" relative="1" as="geometry">
            <mxPoint x="389.5" y="180" as="sourcePoint" />
            <mxPoint x="390" y="210" as="targetPoint" />
          </mxGeometry>
        </mxCell>
        <mxCell id="Z6GeiyVnoEUKx5BJEDNn-28" value="" style="endArrow=classic;html=1;rounded=0;" edge="1" parent="1">
          <mxGeometry width="50" height="50" relative="1" as="geometry">
            <mxPoint x="499.5" y="180" as="sourcePoint" />
            <mxPoint x="500" y="210" as="targetPoint" />
          </mxGeometry>
        </mxCell>
        <mxCell id="Z6GeiyVnoEUKx5BJEDNn-29" value="" style="rounded=1;whiteSpace=wrap;html=1;fillColor=none;" vertex="1" parent="1">
          <mxGeometry x="120" y="200" width="440" height="80" as="geometry" />
        </mxCell>
        <mxCell id="Z6GeiyVnoEUKx5BJEDNn-30" value="" style="curved=1;endArrow=classic;html=1;rounded=0;exitX=0;exitY=0.5;exitDx=0;exitDy=0;entryX=0;entryY=0.5;entryDx=0;entryDy=0;" edge="1" parent="1" source="Z6GeiyVnoEUKx5BJEDNn-29" target="Z6GeiyVnoEUKx5BJEDNn-1">
          <mxGeometry width="50" height="50" relative="1" as="geometry">
            <mxPoint x="60" y="250" as="sourcePoint" />
            <mxPoint x="110" y="200" as="targetPoint" />
            <Array as="points">
              <mxPoint x="90" y="240" />
              <mxPoint x="100" y="140" />
            </Array>
          </mxGeometry>
        </mxCell>
      </root>
    </mxGraphModel>
  </diagram>
</mxfile>
